<?xml version="1.0" standalone="no"?>
<!DOCTYPE svg PUBLIC "-//W3C//DTD SVG 20010904//EN"
 "http://www.w3.org/TR/2001/REC-SVG-20010904/DTD/svg10.dtd">
<svg version="1.0" xmlns="http://www.w3.org/2000/svg"
 width="700.000000pt" height="700.000000pt" viewBox="0 0 700.000000 700.000000"
 preserveAspectRatio="xMidYMid meet">
<metadata>
Created by potrace 1.11, written by Peter Selinger 2001-2013
</metadata>
<g transform="translate(0.000000,700.000000) scale(0.100000,-0.100000)"
fill="#000000" stroke="none">
<path d="M10 3510 l0 -3480 3490 0 3490 0 0 3480 0 3480 -3490 0 -3490 0 0
-3480z m2190 1900 c396 -28 669 -90 894 -204 296 -151 468 -352 538 -632 19
-76 22 -116 22 -269 0 -205 -16 -297 -79 -431 -86 -188 -256 -352 -457 -444
l-61 -27 69 -23 c246 -81 478 -244 593 -415 57 -86 102 -195 127 -315 26 -120
26 -419 0 -540 -125 -584 -558 -888 -1396 -980 -437 -48 -1266 -14 -1630 68
l-35 8 -3 2056 -2 2056 112 21 c340 63 944 96 1308 71z m2279 -767 c161 -41
257 -149 283 -318 14 -93 2 -169 -42 -258 -47 -96 -114 -179 -307 -379 -174
-179 -265 -295 -279 -350 l-6 -28 283 0 284 1 50 86 c127 220 366 522 577 731
l125 122 116 0 117 0 0 -475 0 -476 77 3 77 3 8 45 c65 367 252 827 441 1088
l38 52 -366 0 -366 0 3 88 3 87 473 3 472 2 0 -90 c0 -87 -1 -91 -34 -135
-220 -287 -438 -844 -471 -1200 -3 -38 -8 -81 -11 -94 l-5 -24 -169 7 -170 7
-2 -193 -3 -193 -112 -3 -113 -3 0 196 0 196 -767 -3 -768 -3 -3 53 c-6 105
32 221 114 343 28 42 128 156 234 264 245 252 290 322 290 451 0 73 -18 125
-58 167 -37 39 -67 53 -140 67 -107 19 -228 -18 -332 -101 -24 -20 -44 -29
-48 -23 -4 5 -26 37 -49 71 l-43 62 43 36 c79 68 182 115 295 135 58 10 189 2
261 -17z m-244 -1982 c61 -35 95 -112 95 -218 l0 -63 -155 0 -155 0 0 -27 c1
-49 34 -108 73 -126 39 -19 105 -22 156 -7 19 5 36 8 38 6 2 -2 6 -20 10 -40
5 -32 3 -37 -22 -46 -46 -18 -137 -23 -183 -11 -52 14 -106 61 -134 115 -31
59 -37 203 -12 283 42 134 178 197 289 134z m1193 17 c61 -15 124 -77 146
-146 25 -74 23 -192 -3 -263 -45 -119 -162 -178 -269 -134 -50 21 -79 50 -110
110 -24 45 -27 61 -27 155 0 95 3 111 28 162 30 60 65 93 126 114 45 16 52 17
109 2z m528 -4 c13 -3 20 -12 18 -22 -14 -75 -11 -71 -51 -60 -20 5 -56 7 -79
3 l-44 -6 -2 -227 -3 -227 -43 -3 -42 -3 2 263 3 262 40 12 c42 13 165 18 201
8z m424 -5 l50 -11 0 -267 c0 -209 -3 -278 -15 -318 -33 -111 -146 -156 -305
-122 -47 10 -50 12 -50 42 0 50 10 58 55 46 61 -17 171 -8 195 16 15 16 45
113 37 122 -1 1 -27 -5 -57 -13 -159 -42 -270 76 -258 275 7 112 54 192 133
227 37 16 146 18 215 3z m-1848 -186 c3 -151 7 -194 20 -219 20 -37 55 -54
113 -54 80 0 75 -14 75 236 l0 224 40 0 40 0 -2 -262 -3 -263 -70 -13 c-143
-27 -229 2 -271 92 -23 48 -24 62 -24 249 l0 197 39 0 39 0 4 -187z m510 -240
c11 -10 18 -30 18 -53 0 -69 -63 -92 -103 -38 -46 61 29 142 85 91z"/>
<path d="M1505 4914 c-22 -2 -64 -7 -93 -10 l-52 -5 2 -652 3 -652 325 -3
c457 -4 700 15 878 69 90 28 226 99 285 150 66 57 135 157 165 242 24 65 26
86 26 207 0 113 -4 145 -22 194 -82 223 -307 371 -664 437 -99 19 -157 22
-463 24 -192 1 -368 1 -390 -1z"/>
<path d="M1372 2368 l3 -743 165 -13 c203 -16 663 -9 840 12 230 28 447 96
576 182 219 146 328 389 295 662 -22 176 -69 280 -176 387 -113 113 -268 183
-500 227 -101 19 -156 21 -658 25 l-547 5 2 -744z"/>
<path d="M5353 3917 c-157 -165 -328 -391 -423 -559 l-32 -58 276 0 276 0 0
355 c0 195 -2 355 -4 355 -2 0 -44 -42 -93 -93z"/>
<path d="M4075 2578 c-27 -21 -55 -73 -55 -103 0 -13 18 -15 110 -15 110 0
110 0 110 24 0 96 -95 150 -165 94z"/>
<path d="M5306 2569 c-42 -37 -56 -80 -56 -174 1 -121 47 -185 133 -185 74 0
120 76 119 197 0 160 -103 245 -196 162z"/>
<path d="M6200 2582 c-49 -24 -80 -88 -80 -167 0 -71 31 -143 70 -162 34 -17
85 -16 120 2 l30 16 0 158 0 159 -31 6 c-49 10 -71 7 -109 -12z"/>
</g>
</svg>
