<?xml version="1.0" standalone="no"?>
<!DOCTYPE svg PUBLIC "-//W3C//DTD SVG 20010904//EN"
 "http://www.w3.org/TR/2001/REC-SVG-20010904/DTD/svg10.dtd">
<svg version="1.0" xmlns="http://www.w3.org/2000/svg"
 width="700.000000pt" height="700.000000pt" viewBox="0 0 700.000000 700.000000"
 preserveAspectRatio="xMidYMid meet">
<metadata>
Created by potrace 1.14, written by Peter Selinger 2001-2017
</metadata>
<g transform="translate(0.000000,700.000000) scale(0.100000,-0.100000)"
fill="#000000" stroke="none">
<path d="M1786 6158 c-207 -21 -367 -108 -460 -252 -62 -95 -114 -201 -125
-254 -8 -38 -11 -657 -11 -2171 0 -2074 1 -2118 20 -2188 23 -83 47 -128 107
-200 101 -120 309 -230 472 -250 308 -36 638 123 756 365 46 94 51 154 51 580
-1 217 2 388 7 380 114 -198 160 -261 273 -374 100 -100 203 -171 348 -240
187 -88 346 -132 591 -164 67 -9 430 -5 485 5 249 45 376 84 545 164 383 183
634 421 808 766 33 67 103 258 114 313 64 323 55 571 -32 847 -96 307 -292
584 -550 775 -100 75 -272 176 -382 226 -68 31 -267 98 -323 108 -81 15 -139
26 -165 32 -51 10 -427 13 -495 4 -289 -39 -495 -117 -740 -278 -186 -122
-352 -303 -449 -487 -17 -33 -31 -58 -32 -55 0 3 -2 419 -3 925 -2 910 -2 921
-24 980 -41 117 -102 200 -211 289 -115 92 -229 140 -368 152 -106 9 -137 9
-207 2z"/>
</g>
</svg>
