<?xml version="1.0" encoding="UTF-8" standalone="yes"?>
<svg width="450" height="450" viewBox="0 0 119.063 119.063" version="1.2" baseProfile="tiny-ps" xmlns="http://www.w3.org/2000/svg">
  <title>bimi-svg-tiny-12-ps</title>
  <g>
    <path d="M-14.15 186.19c-5.856 0-9.817 2.324-11.884 6.971-1.033 1.452-1.55 3.05-1.55 4.793v80.164c0 4.357 2.24 7.697 6.717 10.02 4.478 2.324 9.129 2.324 13.952 0 4.478-2.323 6.717-5.663 6.717-10.02v-80.164c0-3.195-1.378-5.955-4.134-8.278-2.411-2.324-5.684-3.486-9.817-3.486z" transform="translate(42.144 -178.504)" fill="#a60303" fill-opacity="1" stroke="none" stroke-width="1.63609" stroke-opacity="1"/>
    <g fill="#a60303" fill-opacity="1">
      <path d="M689.378 16.863q-35.392 0-63.705 17.209-53.087 30.369-53.087 102.243-1.18 67.824 43.65 100.218 31.852 20.246 73.142 20.246 36.571 0 66.064-16.197 53.087-30.369 53.087-104.267 0-68.837-53.087-103.256-28.313-16.196-66.064-16.196zm-55.447 123.5v-4.048q0-43.53 25.954-57.702 14.156-8.098 29.493-8.098 57.806 0 57.806 65.8 0 67.824-57.806 67.824-55.447 0-55.447-63.775z" transform="matrix(.26458 0 0 .26458 -112.514 32.854)" fill="#a60303" fill-opacity="1" stroke-width="3.76831"/>
      <path d="M705.22 251.82c-63.59 0-115-51.4-115-115 0-63.59 51.41-115 115-115 63.6 0 115 51.41 115 115 0 63.6-51.4 115-115 115z" class="shp0" transform="matrix(.26458 0 0 .26458 -112.514 32.854)" fill="#a60303" fill-opacity="1"/>
    </g>
  </g>
</svg>