<?xml version="1.0" standalone="no"?>
<!DOCTYPE svg PUBLIC "-//W3C//DTD SVG 20010904//EN"
 "http://www.w3.org/TR/2001/REC-SVG-20010904/DTD/svg10.dtd">
<svg version="1.0" xmlns="http://www.w3.org/2000/svg"
 width="700.000000pt" height="700.000000pt" viewBox="0 0 700.000000 700.000000"
 preserveAspectRatio="xMidYMid meet">
<metadata>
Created by potrace 1.14, written by Peter Selinger 2001-2017
</metadata>
<g transform="translate(0.000000,700.000000) scale(0.100000,-0.100000)"
fill="#000000" stroke="none">
<path d="M1399 6760 c-286 -26 -479 -151 -618 -399 -35 -62 -73 -136 -85 -165
l-21 -51 -3 -2625 c-2 -2340 -1 -2633 13 -2695 30 -139 112 -270 224 -361 338
-274 769 -301 1139 -73 150 92 264 229 315 379 21 63 22 82 27 590 l5 525 43
-82 c89 -168 203 -312 360 -453 109 -99 169 -138 337 -221 316 -156 620 -223
1015 -223 397 -1 701 67 1026 228 246 122 410 234 568 386 378 363 586 854
586 1380 0 414 -120 785 -367 1133 -72 101 -291 323 -398 402 -168 125 -447
275 -635 340 -247 86 -459 119 -765 119 -311 1 -532 -38 -776 -134 -427 -169
-763 -455 -954 -812 l-44 -83 -3 1145 -3 1145 -22 65 c-35 102 -91 187 -183
279 -139 139 -267 210 -441 244 -99 20 -235 27 -340 17z"/>
</g>
</svg>
